<svg width="24" height="25" viewBox="0 0 24 25" fill="none" xmlns="http://www.w3.org/2000/svg">
<path d="M0 12.832C0 6.20459 5.37261 0.832031 12 0.832031C18.6274 0.832031 24 6.20459 24 12.832C24 19.4594 18.6274 24.8319 12 24.8319C5.37261 24.8319 0 19.4594 0 12.832Z" fill="url(#paint0_linear_288_4443)"/>
<path d="M20 12.7985C20 18.0881 16.7629 19.7855 15.0573 18.2741C13.6534 17.0418 13.2357 14.4377 11.124 14.1703C8.44381 13.8331 8.21175 17.4022 6.44816 17.4022C4.39449 17.4022 4 14.4144 4 12.8798C4 11.3104 4.4409 9.17124 6.19289 9.17124C8.23496 9.17124 8.35099 12.2288 10.9036 12.066C13.4445 11.8917 13.4909 8.70621 15.1386 7.346C16.5772 6.1718 20 7.439 20 12.7985Z" fill="#97FCE4"/>
<defs>
<linearGradient id="paint0_linear_288_4443" x1="12" y1="0.832031" x2="12" y2="24.8319" gradientUnits="userSpaceOnUse">
<stop stop-color="#072723"/>
<stop offset="1" stop-color="#031110"/>
</linearGradient>
</defs>
</svg>