<?xml version="1.0" encoding="UTF-8"?>
<svg version="1.1" xmlns="http://www.w3.org/2000/svg" width="1024" height="1024">
<path d="M0 0 C3.90852611 3.04828153 7.5758174 6.32236711 11.20849609 9.69238281 C11.95744141 10.38332031 12.70638672 11.07425781 13.47802734 11.78613281 C18.89236538 16.99756666 23.52177996 22.8319779 28.20849609 28.69238281 C33.44162471 35.14251808 38.74399148 41.52672919 44.12207031 47.85595703 C47.76686317 52.15210554 51.33622473 56.50588831 54.89208984 60.87597656 C57.48636875 64.03023473 60.12455875 67.14441261 62.77099609 70.25488281 C66.64091411 74.80522597 70.40809506 79.42071117 74.11865234 84.10253906 C77.04126026 87.72438775 80.05511908 91.26580295 83.07617188 94.80566406 C85.98151614 98.21641613 88.79856657 101.68183862 91.58349609 105.19238281 C105.74071385 122.51534694 123.27842547 137.43622149 146.20849609 140.69238281 C166.9267292 142.5955361 186.74557705 137.95877039 203.29052734 124.96655273 C210.55847722 118.91545395 216.63950849 111.81492363 222.66064453 104.5546875 C224.14516951 102.76857448 225.64545102 100.99745105 227.15380859 99.23144531 C231.37529039 94.2856576 235.54348968 89.30015551 239.64599609 84.25488281 C243.60293027 79.39188857 247.67285551 74.63538078 251.76464844 69.88623047 C255.56012976 65.47206515 259.26127522 60.98905083 262.93115234 56.46972656 C265.95269554 52.78479138 269.0388556 49.1566996 272.125 45.52587891 C275.00407453 42.13264806 277.84061101 38.70961561 280.64599609 35.25488281 C301.21044776 10.05515223 323.32360782 -11.98188677 357.20849609 -16.30761719 C388.86865801 -18.15491352 414.76777358 -10.23575503 438.70849609 10.89941406 C455.22507978 26.46113276 466.52945448 49.20282623 467.51708984 72.01269531 C468.23532549 104.81504265 455.08904111 129.6856952 433.37255859 153.28222656 C431.13970475 155.768997 429.04704707 158.33359277 426.95849609 160.94238281 C422.86327685 166.01129055 418.48515039 170.74595043 414.01953125 175.48461914 C409.84823185 179.93584274 405.99813107 184.55060239 402.18505859 189.31347656 C399.94610249 192.00818856 397.52621013 194.40286581 395.00927734 196.83300781 C391.97327045 199.96780018 389.32011102 203.41493024 386.58740234 206.81347656 C384.25472393 209.63643878 381.82602405 212.32274893 379.33349609 215.00488281 C373.57217365 221.2834757 368.3560298 227.90979403 363.20849609 234.69238281 C362.56630127 235.52527832 362.56630127 235.52527832 361.91113281 236.375 C339.71221939 265.29593916 329.7514173 299.50754091 333.53369141 335.81396484 C338.88519653 375.49452898 361.37874972 409.47894047 389.58178711 437.05151367 C391.90617808 439.39613798 394.03797911 441.892121 396.19287109 444.39160156 C398.65329839 447.20011256 401.1782281 449.94701852 403.70849609 452.69238281 C406.72790363 455.97079946 409.73052113 459.25819661 412.64599609 462.62988281 C415.68309137 466.13087809 418.81159865 469.54043881 421.95849609 472.94238281 C422.47460449 473.50119141 422.99071289 474.06 423.52246094 474.63574219 C426.01808887 477.33514228 428.5208609 480.02712168 431.04052734 482.70410156 C452.43602529 505.54169336 468.75840685 531.57186296 468.42333984 564.03613281 C467.12410585 586.14673319 458.16013205 607.41171255 443.20849609 623.69238281 C442.77053711 624.17803711 442.33257813 624.66369141 441.88134766 625.1640625 C425.14432096 643.55471216 402.28610991 655.24237597 377.23071289 656.81665039 C347.60095905 657.93954262 322.86239674 647.69348743 301.07177734 627.73535156 C296.55386798 623.3772111 292.61436393 618.62725965 288.68505859 613.73925781 C285.95633342 610.38215113 283.1567169 607.09495655 280.33349609 603.81738281 C275.04819344 597.67563822 269.80316604 591.50145673 264.57617188 585.31005859 C263.18390192 583.66329302 261.78844137 582.01928214 260.39208984 580.37597656 C256.1410955 575.37003629 251.91285318 570.35197901 247.77099609 565.25488281 C243.81444084 560.39235426 239.74662772 555.63468821 235.65234375 550.88842773 C232.58844993 547.32851672 229.5926689 543.72568501 226.64599609 540.06738281 C221.74421764 534.03987947 216.53077632 528.34730555 211.20849609 522.69238281 C210.06380859 521.44908203 210.06380859 521.44908203 208.89599609 520.18066406 C195.70052186 506.30185277 178.27694715 498.91859712 159.26025391 498.23681641 C136.35573333 497.88149568 118.02133024 507.13862641 101.64599609 523.00488281 C97.70005495 527.04757208 94.12633396 531.3291558 90.59521484 535.73535156 C87.99689427 538.95454743 85.32997061 542.10721632 82.64599609 545.25488281 C79.45892985 549.00054651 76.32056844 552.77046553 73.27099609 556.62988281 C70.03351749 560.71653613 66.67459088 564.68194653 63.27099609 568.62988281 C59.00146223 573.58331007 54.80275783 578.58254818 50.67724609 583.65722656 C42.51850576 593.68782979 34.31355573 603.68382008 25.90771484 613.50878906 C24.02036842 615.71838216 22.17770902 617.95815796 20.35302734 620.21972656 C6.19679411 637.58172244 -10.84833719 648.60178248 -32.79150391 653.69238281 C-33.63068359 653.91667969 -34.46986328 654.14097656 -35.33447266 654.37207031 C-59.68191233 660.02346331 -84.90939089 653.88763627 -106.16650391 641.75488281 C-128.91637458 627.32257754 -145.24159839 605.78659104 -151.28369141 579.43847656 C-155.96425878 554.12740839 -151.11080579 529.78416162 -136.72119141 508.39160156 C-129.7672258 498.66449582 -122.29577963 489.78371359 -114.09570312 481.08935547 C-111.85364683 478.68781183 -109.71392579 476.20025591 -107.56494141 473.71582031 C-104.49243051 470.21018013 -101.3316174 466.7843991 -98.18994141 463.34082031 C-96.23913248 461.18666974 -94.31756778 459.01519812 -92.41650391 456.81738281 C-89.28125797 453.20664934 -86.04224556 449.69870002 -82.79150391 446.19238281 C-78.37685726 441.42567266 -74.0179424 436.62777228 -69.79150391 431.69238281 C-68.99615234 430.77585937 -68.20080078 429.85933594 -67.38134766 428.91503906 C-37.1067568 393.81607793 -14.46450389 354.52901006 -17.79150391 306.69238281 C-21.30676008 270.12333599 -41.57075902 240.42185025 -65.15673828 213.56542969 C-67.26458051 211.15035119 -69.34144637 208.70978662 -71.41772461 206.26757812 C-76.1187896 200.73871524 -80.92154625 195.33454036 -85.8605957 190.01757812 C-88.7778886 186.85651937 -91.53521403 183.60758532 -94.22900391 180.25488281 C-98.59290849 174.83329938 -103.27571921 169.76396165 -108.01806641 164.67675781 C-110.70109016 161.79837695 -113.32489982 158.87708659 -115.89306641 155.89550781 C-117.4381108 154.10249333 -118.99769006 152.325254 -120.56494141 150.55175781 C-141.52204962 126.68923993 -153.60804494 101.73078426 -151.79150391 69.69238281 C-149.44478697 44.96682898 -136.53828443 20.90632054 -117.63525391 4.84472656 C-83.54493143 -20.95715213 -35.88402508 -26.19171959 0 0 Z " fill="#9D6FF8" transform="translate(353.79150390625,192.3076171875)"/>
<path d="M0 0 C13.58882157 6.00223733 22.15447128 23.47386703 28.13671875 36.29296875 C29.03244328 39.10173389 29.06367194 40.29891792 28 43 C27.78085937 42.48953125 27.56171875 41.9790625 27.3359375 41.453125 C26.2474738 38.95762285 25.12819198 36.47780481 24 34 C23.57589844 33.06027344 23.15179687 32.12054688 22.71484375 31.15234375 C17.49458424 20.11563911 10.49372124 11.03250477 1.65234375 2.64453125 C1.10707031 2.10183594 0.56179688 1.55914062 0 1 C0 0.67 0 0.34 0 0 Z " fill="#AF7FF0" transform="translate(787,200)"/>
<path d="M0 0 C5.35619567 1.46078064 8.32490684 5.08977055 12 9 C12.804375 9.804375 13.60875 10.60875 14.4375 11.4375 C14.953125 11.953125 15.46875 12.46875 16 13 C13 13 13 13 10.87890625 11.171875 C10.11449219 10.37265625 9.35007812 9.5734375 8.5625 8.75 C7.80066406 7.96109375 7.03882813 7.1721875 6.25390625 6.359375 C5.51011719 5.58078125 4.76632812 4.8021875 4 4 C2.67008108 2.66326098 1.3378969 1.32875409 0 0 Z " fill="#A172E3" transform="translate(552,702)"/>
<path d="M0 0 C0.99 0 1.98 0 3 0 C1.63016497 3.16115776 1.0109362 3.9927092 -2 6 C-1.125 1.125 -1.125 1.125 0 0 Z " fill="#AE7EF5" transform="translate(446,721)"/>
</svg>
