<svg width="2394" height="675" viewBox="0 0 2394 675" fill="none" xmlns="http://www.w3.org/2000/svg">
<path d="M1925.01 17.2572C1928.92 20.3055 1932.58 23.5796 1936.22 26.9496C1936.96 27.6405 1937.71 28.3315 1938.49 29.0433C1943.9 34.2548 1948.53 40.0892 1953.22 45.9496C1958.45 52.3997 1963.75 58.7839 1969.13 65.1132C1972.77 69.4093 1976.34 73.7631 1979.9 78.1332C1982.49 81.2874 1985.13 84.4016 1987.78 87.5121C1991.65 92.0624 1995.42 96.6779 1999.13 101.36C2002.05 104.982 2005.06 108.523 2008.08 112.063C2010.99 115.474 2013.81 118.939 2016.59 122.45C2030.75 139.773 2048.29 154.693 2071.22 157.95C2091.93 159.853 2111.75 155.216 2128.3 142.224C2135.57 136.173 2141.65 129.072 2147.67 121.812C2149.15 120.026 2150.65 118.255 2152.16 116.489C2156.38 111.543 2160.55 106.557 2164.65 101.512C2168.61 96.6491 2172.68 91.8926 2176.77 87.1434C2180.57 82.7293 2184.27 78.2463 2187.94 73.7269C2190.96 70.042 2194.05 66.4139 2197.13 62.7831C2200.01 59.3898 2202.85 55.9668 2205.65 52.5121C2226.22 27.3124 2248.33 5.27531 2282.22 0.949582C2313.88 -0.897714 2339.77 7.02144 2363.72 28.1566C2380.23 43.7183 2391.54 66.46 2392.52 89.2699C2393.24 122.072 2380.1 146.943 2358.38 170.539C2356.15 173.026 2354.05 175.591 2351.97 178.2C2347.87 183.268 2343.49 188.003 2339.03 192.742C2334.86 197.193 2331.01 201.808 2327.19 206.571C2324.95 209.265 2322.53 211.66 2320.02 214.09C2316.98 217.225 2314.33 220.672 2311.59 224.071C2309.26 226.894 2306.83 229.58 2304.34 232.262C2298.58 238.541 2293.36 245.167 2288.22 251.95C2287.57 252.782 2287.57 252.782 2286.92 253.632C2264.72 282.553 2254.76 316.765 2258.54 353.071C2263.89 392.752 2286.39 426.736 2314.59 454.309C2316.91 456.653 2319.04 459.149 2321.2 461.649C2323.66 464.457 2326.19 467.204 2328.72 469.95C2331.73 473.228 2334.74 476.515 2337.65 479.887C2340.69 483.388 2343.82 486.798 2346.97 490.2C2347.48 490.758 2348 491.317 2348.53 491.893C2351.03 494.592 2353.53 497.284 2356.05 499.961C2377.44 522.799 2393.77 548.829 2393.43 581.293C2392.13 603.404 2383.17 624.669 2368.22 640.95C2367.78 641.435 2367.34 641.921 2366.89 642.421C2350.15 660.812 2327.29 672.5 2302.24 674.074C2272.61 675.197 2247.87 664.951 2226.08 644.993C2221.56 640.634 2217.62 635.884 2213.69 630.996C2210.96 627.639 2208.16 624.352 2205.34 621.075C2200.06 614.933 2194.81 608.759 2189.58 602.567C2188.19 600.92 2186.8 599.276 2185.4 597.633C2181.15 592.627 2176.92 587.609 2172.78 582.512C2168.82 577.65 2164.75 572.892 2160.66 568.146C2157.6 564.586 2154.6 560.983 2151.65 557.325C2146.75 551.297 2141.54 545.604 2136.22 539.95C2135.07 538.706 2135.07 538.706 2133.9 537.438C2120.71 523.559 2103.28 516.176 2084.27 515.494C2061.36 515.139 2043.03 524.396 2026.65 540.262C2022.71 544.305 2019.13 548.586 2015.6 552.993C2013 556.212 2010.34 559.364 2007.65 562.512C2004.47 566.258 2001.33 570.028 1998.28 573.887C1995.04 577.974 1991.68 581.939 1988.28 585.887C1984.01 590.841 1979.81 595.84 1975.68 600.914C1967.53 610.945 1959.32 620.941 1950.91 630.766C1949.03 632.976 1947.18 635.215 1945.36 637.477C1931.2 654.839 1914.16 665.859 1892.22 670.95C1891.38 671.174 1890.54 671.398 1889.67 671.629C1865.33 677.281 1840.1 671.145 1818.84 659.012C1796.09 644.58 1779.77 623.044 1773.72 596.696C1769.04 571.385 1773.9 547.041 1788.29 525.649C1795.24 515.922 1802.71 507.041 1810.91 498.347C1813.15 495.945 1815.29 493.457 1817.44 490.973C1820.51 487.467 1823.68 484.042 1826.82 480.598C1828.77 478.444 1830.69 476.272 1832.59 474.075C1835.73 470.464 1838.96 466.956 1842.22 463.45C1846.63 458.683 1850.99 453.885 1855.22 448.95C1856.01 448.033 1856.81 447.117 1857.63 446.172C1887.9 411.073 1910.54 371.786 1907.22 323.95C1903.7 287.381 1883.44 257.679 1859.85 230.823C1857.74 228.408 1855.67 225.967 1853.59 223.525C1848.89 217.996 1844.09 212.592 1839.15 207.275C1836.23 204.114 1833.47 200.865 1830.78 197.512C1826.41 192.09 1821.73 187.021 1816.99 181.934C1814.31 179.056 1811.68 176.134 1809.11 173.153C1807.57 171.36 1806.01 169.582 1804.44 167.809C1783.48 143.946 1771.4 118.988 1773.22 86.9496C1775.56 62.224 1788.47 38.1635 1807.37 22.1019C1841.46 -3.69995 1889.12 -8.93452 1925.01 17.2572Z" fill="#9D6FF8"/>
<path d="M115.286 644V275.6H0.68594V206H305.486V275.6H190.886V644H115.286ZM389.252 644V314H460.052V377H478.652L456.452 415.4C456.452 379.8 464.452 353 480.452 335C496.452 317 520.052 308 551.252 308C586.852 308 614.852 319 635.252 341C655.652 363 665.852 393.4 665.852 432.2V456.2H587.252V437.6C587.252 416.4 581.652 400 570.452 388.4C559.652 376.8 544.652 371 525.452 371C505.852 371 490.652 376.8 479.852 388.4C469.452 400 464.252 416.4 464.252 437.6V644H389.252ZM836.017 650C802.017 650 775.217 641 755.617 623C736.017 605 726.217 580.8 726.217 550.4C726.217 518 737.017 493 758.617 475.4C780.217 457.8 810.817 449 850.417 449H932.617V420.8C932.617 404.8 927.417 392.4 917.017 383.6C906.617 374.4 892.417 369.8 874.417 369.8C858.017 369.8 844.417 373.4 833.617 380.6C822.817 387.8 816.417 397.6 814.417 410H741.217C744.817 378.8 758.817 354 783.217 335.6C807.617 317.2 838.817 308 876.817 308C917.217 308 949.017 318.2 972.217 338.6C995.817 358.6 1007.62 385.8 1007.62 420.2V644H935.017V586.4H923.017L935.017 570.2C935.017 594.6 926.017 614 908.017 628.4C890.017 642.8 866.017 650 836.017 650ZM860.617 593.6C881.817 593.6 899.017 588.2 912.217 577.4C925.817 566.6 932.617 552.6 932.617 535.4V495.2H851.617C836.417 495.2 824.217 499.6 815.017 508.4C805.817 517.2 801.217 528.8 801.217 543.2C801.217 558.8 806.417 571.2 816.817 580.4C827.617 589.2 842.217 593.6 860.617 593.6ZM1234.18 650C1206.18 650 1181.58 644.8 1160.38 634.4C1139.58 623.6 1123.38 608.6 1111.78 589.4C1100.18 569.8 1094.38 546.8 1094.38 520.4V437.6C1094.38 410.8 1100.18 387.8 1111.78 368.6C1123.38 349.4 1139.58 334.6 1160.38 324.2C1181.58 313.4 1206.18 308 1234.18 308C1275.78 308 1308.98 318.8 1333.78 340.4C1358.58 361.6 1371.58 390.6 1372.78 427.4H1297.78C1296.58 410.2 1290.38 397 1279.18 387.8C1268.38 378.2 1253.38 373.4 1234.18 373.4C1214.18 373.4 1198.38 379 1186.78 390.2C1175.18 401 1169.38 416.6 1169.38 437V520.4C1169.38 540.8 1175.18 556.6 1186.78 567.8C1198.38 579 1214.18 584.6 1234.18 584.6C1253.38 584.6 1268.38 580 1279.18 570.8C1290.38 561.2 1296.58 547.8 1297.78 530.6H1372.78C1371.58 567.4 1358.58 596.6 1333.78 618.2C1308.98 639.4 1275.78 650 1234.18 650ZM1592.75 650C1564.75 650 1540.35 644.6 1519.55 633.8C1498.75 623 1482.55 608 1470.95 588.8C1459.75 569.2 1454.15 546.4 1454.15 520.4V437.6C1454.15 411.6 1459.75 389 1470.95 369.8C1482.55 350.2 1498.75 335 1519.55 324.2C1540.35 313.4 1564.75 308 1592.75 308C1620.35 308 1644.35 313.4 1664.75 324.2C1685.55 335 1701.55 350.2 1712.75 369.8C1724.35 389 1730.15 411.6 1730.15 437.6V497H1526.75V520.4C1526.75 543.6 1532.35 561.2 1543.55 573.2C1554.75 584.8 1571.35 590.6 1593.35 590.6C1610.15 590.6 1623.75 587.8 1634.15 582.2C1644.55 576.2 1651.15 567.6 1653.95 556.4H1727.75C1722.15 584.8 1706.95 607.6 1682.15 624.8C1657.75 641.6 1627.95 650 1592.75 650ZM1657.55 455V437C1657.55 414.2 1652.15 396.8 1641.35 384.8C1630.55 372.4 1614.35 366.2 1592.75 366.2C1571.15 366.2 1554.75 372.4 1543.55 384.8C1532.35 397.2 1526.75 414.8 1526.75 437.6V450.2L1662.95 449L1657.55 455Z" fill="#9D6FF8"/>
</svg>
