<svg width="249" height="248" viewBox="0 0 249 248" fill="none" xmlns="http://www.w3.org/2000/svg">
<path d="M98.5236 227.729V207.698H115.97C120.995 207.698 124.585 206.621 126.739 204.467C129.036 202.457 130.185 199.011 130.185 194.129V92.8979H103.047V73.5133H130.185V58.6517C130.185 46.7338 133.129 38.1902 139.016 33.021C144.903 27.8517 153.303 25.2671 164.216 25.2671H190.278V45.2979H167.016C161.99 45.2979 158.401 46.303 156.247 48.3133C154.093 50.3235 153.016 53.8415 153.016 58.8671V73.5133H190.278V92.8979H153.016V194.344C153.016 206.262 150.072 214.806 144.185 219.975C138.298 225.144 129.826 227.729 118.77 227.729H98.5236Z" fill="#519DFF"/>
<path d="M77.8399 222.01C59.9689 222.01 42.8298 214.911 30.1931 202.274C17.5564 189.638 10.4572 172.499 10.4572 154.628C10.4572 136.757 17.5564 119.618 30.1931 106.981C42.8298 94.3441 59.9689 87.2449 77.8399 87.2449" stroke="#519DFF" stroke-width="19.2308"/>
<path d="M213.164 39.1905C219.535 39.1905 225.646 41.7217 230.152 46.2272C234.657 50.7327 237.188 56.8435 237.188 63.2153C237.188 69.5871 234.657 75.6979 230.152 80.2034C225.646 84.7089 219.535 87.2401 213.164 87.2401" stroke="#519DFF" stroke-width="19.6154"/>
</svg>
